# xmcd CD database file
#
# Track frame offsets:
#	150
#	4985
#	23794
#	45581
#	61069
#	81002
#	100693
#	120078
#	139128
#	160393
#	189820
#	215142
#
# Disc length: 2945 seconds
#
# Revision: 0
# Processed by: cddbd v1.5.2PL0 Copyright (c) Steve Scherf et al.
# Submitted via: CDex 1.70beta2
#
DISCID=910b7f0c
DTITLE=FURNAZE - NONE MORE BLACK
DYEAR=2012
DGENRE=Thrash Metal
TTITLE0=BENDING TIME
TTITLE1=BREATHE IN THE FIRE
TTITLE2=FRESSE
TTITLE3=GHOST RIDER
TTITLE4=NONE MORE BLACK
TTITLE5=2012
TTITLE6=ANGER FLOW
TTITLE7=MASS FRUSTRATION
TTITLE8=ULTIMATE SACRIFICE
TTITLE9=FIGHT
TTITLE10=UNBOUND AND UNDERGROUND
TTITLE11=CYA
EXTD=YEAR: 2012
EXTT0=
EXTT1=
EXTT2=
EXTT3=
EXTT4=
EXTT5=
EXTT6=
EXTT7=
EXTT8=
EXTT9=
EXTT10=
EXTT11=
PLAYORDER=
